<?xml version="1.0" standalone="no"?>
<!DOCTYPE svg PUBLIC "-//W3C//DTD SVG 20010904//EN"
 "http://www.w3.org/TR/2001/REC-SVG-20010904/DTD/svg10.dtd">
<svg version="1.0" xmlns="http://www.w3.org/2000/svg"
 width="128.000000pt" height="128.000000pt" viewBox="0 0 128.000000 128.000000"
 preserveAspectRatio="xMidYMid meet">
<metadata>
Created by potrace 1.14, written by Peter Selinger 2001-2017
</metadata>
<g transform="translate(0.000000,128.000000) scale(0.100000,-0.100000)"
fill="#000000" stroke="none">
<path d="M510 1226 c-3 -2 -23 -7 -45 -10 -22 -3 -78 -25 -125 -48 -202 -98
-329 -302 -331 -530 -1 -101 13 -160 58 -257 45 -95 110 -161 186 -189 99 -38
188 -34 337 13 41 13 102 30 135 38 58 13 198 15 240 4 45 -12 81 -29 103 -49
12 -12 22 -18 22 -14 0 16 -77 80 -120 100 -37 17 -64 21 -150 21 -91 0 -122
-5 -234 -38 -133 -38 -195 -45 -255 -27 -55 15 -109 59 -131 105 -31 63 -20
120 34 186 19 22 22 38 21 120 l0 94 -32 3 c-36 4 -34 10 -36 -93 -1 -33 -8
-52 -28 -76 -33 -39 -46 -33 -43 21 9 173 154 334 332 369 29 6 68 11 86 11
19 0 36 6 38 13 2 6 4 62 4 122 l-1 110 -30 3 c-17 2 -33 1 -35 -2z"/>
<path d="M641 1048 c1 -202 3 -218 27 -218 10 0 27 -7 40 -15 30 -21 36 -17
176 124 l120 120 -25 21 c-94 80 -193 128 -302 145 l-36 6 0 -183z"/>
<path d="M922 872 c-73 -70 -132 -134 -132 -143 0 -30 24 -40 125 -55 22 -3
48 -7 57 -10 10 -3 30 -7 45 -10 16 -2 51 -9 78 -15 28 -5 60 -12 73 -15 22
-4 23 -3 18 48 -7 76 -14 106 -40 170 -18 45 -83 158 -90 158 0 0 -61 -58
-134 -128z"/>
<path d="M505 932 c-6 -7 -7 -257 0 -264 3 -2 19 -3 35 0 l31 4 -3 131 -3 131
-27 1 c-15 1 -30 0 -33 -3z"/>
<path d="M399 873 c-6 -40 -3 -243 4 -243 4 0 20 6 36 14 l28 15 -2 107 -1
108 -32 3 c-17 2 -33 0 -33 -4z"/>
<path d="M288 666 l-3 -143 38 37 37 38 0 106 0 106 -34 0 -35 0 -3 -144z"/>
<path d="M517 642 c-9 -2 -17 -9 -18 -15 -1 -19 -1 -231 0 -239 1 -4 29 1 64
11 34 10 102 19 152 20 49 1 91 4 93 5 5 6 4 207 -1 212 -6 6 -263 11 -290 6z"/>
<path d="M829 563 c-1 -11 -1 -163 0 -190 1 -19 7 -23 34 -23 17 0 54 -7 81
-15 60 -18 106 -19 107 -2 5 57 3 84 -6 96 -5 7 -24 41 -41 75 l-30 61 -72 3
c-40 2 -72 -1 -73 -5z m129 -48 c19 -41 15 -45 -38 -45 l-50 0 0 35 c0 34 1
35 38 35 32 0 41 -5 50 -25z m32 -140 c15 -17 5 -35 -20 -35 -22 0 -33 23 -17
39 15 15 22 14 37 -4z"/>
<path d="M1016 560 c6 -6 55 -11 110 -11 141 0 144 0 144 11 0 6 -51 10 -132
10 -91 0 -129 -3 -122 -10z"/>
<path d="M435 550 c-41 -17 -104 -82 -129 -132 -32 -63 -35 -118 -7 -118 13 0
20 10 24 35 8 48 39 88 97 126 44 28 50 37 50 66 0 35 -3 37 -35 23z"/>
<path d="M1074 511 c-2 -2 -1 -8 2 -12 7 -13 184 -11 184 1 0 11 2 11 -103 13
-43 1 -80 0 -83 -2z"/>
<path d="M1106 452 c-3 -3 -6 -9 -6 -14 0 -12 40 -6 43 6 2 10 -29 17 -37 8z"/>
<path d="M389 408 c-39 -13 -66 -76 -47 -111 28 -54 93 -64 133 -21 60 65 -3
160 -86 132z m55 -60 c15 -21 14 -24 -3 -41 -15 -16 -22 -17 -40 -8 -25 14
-27 46 -3 60 24 15 29 14 46 -11z"/>
<path d="M727 404 c-1 -1 -24 -4 -52 -8 -88 -10 -162 -39 -162 -62 0 -19 104
-19 177 1 30 8 69 15 87 15 32 0 43 13 35 42 -3 13 -14 17 -44 15 -22 -1 -40
-3 -41 -3z"/>
<path d="M740 206 c-30 -7 -95 -24 -145 -39 -49 -14 -103 -29 -120 -32 -41 -8
-142 -7 -167 1 -29 9 -14 -12 20 -30 188 -95 464 -75 602 43 l25 22 -55 -6
c-30 -3 -89 -15 -130 -26 -96 -26 -200 -48 -200 -42 0 5 126 63 149 69 9 2 36
8 61 15 59 14 85 17 144 18 79 1 45 13 -46 16 -46 2 -108 -3 -138 -9z"/>
</g>
</svg>
